<?xml version="1.0" encoding="UTF-8" standalone="no"?>
<svg
   xmlns:dc="http://purl.org/dc/elements/1.1/"
   xmlns:cc="http://creativecommons.org/ns#"
   xmlns:rdf="http://www.w3.org/1999/02/22-rdf-syntax-ns#"
   xmlns:svg="http://www.w3.org/2000/svg"
   xmlns="http://www.w3.org/2000/svg"
   xmlns:sodipodi="http://sodipodi.sourceforge.net/DTD/sodipodi-0.dtd"
   xmlns:inkscape="http://www.inkscape.org/namespaces/inkscape"
   id="monitorLogo"
   width="1167.2"
   height="371.43"
   enable-background="new 0 0 2112 608"
   alt="Holdings"
   version="1.1"
   viewBox="0 0 1167.2 371.43"
   xml:space="preserve"
   sodipodi:docname="full-mfn-white.svg"
   inkscape:version="0.92.3 (2405546, 2018-03-11)"
   inkscape:export-filename="/home/raz/workspace/mfn/go/src/mfn/honcho/resources/assets/branding/full-mfn-white-lg.png"
   inkscape:export-xdpi="41.095226"
   inkscape:export-ydpi="41.095226"><defs
     id="defs1504" /><sodipodi:namedview
     pagecolor="#ffffff"
     bordercolor="#666666"
     borderopacity="1"
     objecttolerance="10"
     gridtolerance="10"
     guidetolerance="10"
     inkscape:pageopacity="0"
     inkscape:pageshadow="2"
     inkscape:window-width="1916"
     inkscape:window-height="1117"
     id="namedview1502"
     showgrid="false"
     inkscape:zoom="0.30843044"
     inkscape:cx="345.29665"
     inkscape:cy="111.14389"
     inkscape:window-x="1920"
     inkscape:window-y="81"
     inkscape:window-maximized="0"
     inkscape:current-layer="monitorLogo" /><metadata
     id="metadata1470"><rdf:RDF><cc:Work
         rdf:about=""><dc:format>image/svg+xml</dc:format><dc:type
           rdf:resource="http://purl.org/dc/dcmitype/StillImage" /><dc:title></dc:title></cc:Work></rdf:RDF></metadata><g
     id="XMLID_2_"
     transform="translate(-126.41 -132.11)"
     fill="#6d6e70"
     style="fill:#fcfdff;fill-opacity:1"><path
       id="XMLID_6_"
       d="m615.2 180.4v-46.1h8.3l14 21 14.4-21h8.2v46.1h-6.6v-26.1l0.1-11.6h-0.6l-14.1 20.7h-2.8l-14-20.7h-0.6l0.1 11.6v26.1z"
       style="fill:#fcfdff;fill-opacity:1" /><path
       id="XMLID_10_"
       d="m666.8 157.3c0-3.6 0.6-6.8 1.9-9.7s3-5.4 5.3-7.6c2.2-2.1 4.9-3.8 7.9-4.9 3-1.2 6.3-1.8 9.8-1.8s6.7 0.6 9.7 1.8 5.6 2.8 7.9 4.9c2.2 2.1 4 4.7 5.3 7.6s1.9 6.2 1.9 9.7c0 3.6-0.6 6.8-1.9 9.7s-3 5.5-5.3 7.6c-2.2 2.1-4.9 3.8-7.9 4.9-3 1.2-6.2 1.8-9.7 1.8s-6.8-0.6-9.8-1.8-5.6-2.8-7.9-4.9c-2.2-2.1-4-4.7-5.3-7.6-1.2-2.9-1.9-6.2-1.9-9.7zm6.8 0c0 2.9 0.5 5.5 1.4 7.8 1 2.3 2.3 4.2 3.9 5.8s3.6 2.8 5.7 3.6 4.5 1.2 7 1.2 4.8-0.4 7-1.2 4.1-2 5.7-3.6 2.9-3.5 3.9-5.8 1.5-4.9 1.5-7.8-0.5-5.5-1.5-7.8-2.3-4.2-3.9-5.7c-1.6-1.6-3.5-2.8-5.7-3.6s-4.5-1.2-7-1.2-4.8 0.4-7 1.2-4.1 2-5.7 3.6-2.9 3.5-3.9 5.7c-0.9 2.2-1.4 4.8-1.4 7.8z"
       style="fill:#fcfdff;fill-opacity:1" /><path
       id="XMLID_31_"
       d="m723.3 180.4v-46.1h17.1c3.9 0 7.4 0.5 10.5 1.6s5.7 2.6 7.9 4.6 3.8 4.4 5 7.3 1.8 6.2 1.8 9.9c0 3.8-0.7 7.1-2 9.9s-3.2 5.2-5.5 7.1-5.1 3.3-8.4 4.3-6.8 1.5-10.6 1.5h-15.8zm6.8-5.7h9.5c2.8 0 5.3-0.3 7.7-0.9s4.4-1.6 6.1-3 3-3.1 4-5.3 1.5-4.8 1.5-7.9c0-3.2-0.4-5.9-1.3-8.1s-2.1-4.1-3.7-5.5-3.5-2.5-5.8-3.1-4.8-1-7.5-1h-10.4v34.8z"
       style="fill:#fcfdff;fill-opacity:1" /><path
       id="XMLID_34_"
       d="m772.4 160.6v-26.4h6.8v26.9c0 4.9 1.1 8.6 3.4 11.1 2.2 2.5 5.4 3.7 9.4 3.7s7.2-1.2 9.4-3.7c2.3-2.5 3.4-6.1 3.4-11.1v-26.9h6.8v26.4c0 3.6-0.5 6.6-1.4 9.2s-2.2 4.7-3.9 6.4-3.7 3-6.2 3.8-5.1 1.2-8.1 1.2-5.7-0.4-8.1-1.2-4.5-2.1-6.1-3.8c-1.7-1.7-3-3.9-3.9-6.4-1.1-2.6-1.5-5.6-1.5-9.2z"
       style="fill:#fcfdff;fill-opacity:1" /><path
       id="XMLID_36_"
       d="m820 180.4v-46.1h6.8v40.5h21.8v5.6z"
       style="fill:#fcfdff;fill-opacity:1" /><path
       id="XMLID_38_"
       d="m852.1 180.4 19.8-46.1h7.5l19.8 46.1h-7l-6-13.9h-21.2l-5.8 13.9zm14.9-19.6h16.9l-8.1-20.1h-0.6z"
       style="fill:#fcfdff;fill-opacity:1" /><path
       id="XMLID_41_"
       d="m904.6 180.4v-46.1h18.8c2.3 0 4.4 0.3 6.4 0.9s3.7 1.5 5.1 2.6 2.5 2.5 3.3 4.1 1.2 3.4 1.2 5.5c0 2.7-0.9 5.2-2.6 7.4s-4.2 3.7-7.6 4.6l13.3 21h-7.9l-12.4-19.8h-11.1v19.8zm6.8-25.3h11.1c3 0 5.5-0.7 7.4-2s2.9-3.3 2.9-5.8c0-2.6-0.9-4.5-2.8-5.7-1.8-1.3-4.4-1.9-7.6-1.9h-11z"
       style="fill:#fcfdff;fill-opacity:1" /><path
       id="XMLID_44_"
       d="m988.1 180.4v-46.1h29.7v5.4h-23v14.2h20.7v5.4h-20.7v21.1z"
       style="fill:#fcfdff;fill-opacity:1" /><path
       id="XMLID_46_"
       d="m1025.7 180.4v-46.1h6.8v46.1z"
       style="fill:#fcfdff;fill-opacity:1" /><path
       id="XMLID_48_"
       d="m1041 180.4v-46.1h7l29.6 37.7-0.2-12.1v-25.6h6.4v46.1h-7.2l-29.7-37.9 0.4 14.1v23.8z"
       style="fill:#fcfdff;fill-opacity:1" /><path
       id="XMLID_50_"
       d="m1089.4 180.4 19.8-46.1h7.5l19.8 46.1h-7l-6-13.9h-21.2l-5.8 13.9zm14.9-19.6h16.9l-8.1-20.1h-0.6z"
       style="fill:#fcfdff;fill-opacity:1" /><path
       id="XMLID_53_"
       d="m1142 180.4v-46.1h7l29.6 37.7-0.2-12.1v-25.6h6.4v46.1h-7.2l-29.7-37.9 0.4 14.1v23.8z"
       style="fill:#fcfdff;fill-opacity:1" /><path
       id="XMLID_55_"
       d="m1191.7 157.2c0-3.6 0.7-6.8 2-9.8s3.1-5.5 5.4-7.6 4.9-3.7 7.9-4.9 6.2-1.8 9.6-1.8c3.5 0 6.5 0.4 9 1.2s5 2.1 7.4 4l-2.7 5.2c-2.3-1.7-4.5-2.9-6.6-3.6s-4.5-1.1-7.1-1.1c-2.8 0-5.3 0.5-7.5 1.4-2.3 0.9-4.2 2.2-5.8 3.8s-2.8 3.6-3.7 5.8-1.3 4.7-1.3 7.3c0 3 0.5 5.6 1.4 7.8s2.2 4.1 3.9 5.7c1.6 1.5 3.6 2.7 5.8 3.4 2.2 0.8 4.6 1.1 7.1 1.1 1.4 0 2.7-0.1 4-0.2 1.2-0.1 2.4-0.4 3.6-0.7 1.1-0.3 2.3-0.8 3.4-1.4s2.3-1.3 3.6-2.1l2 5.8c-2.6 1.8-5.2 3-7.9 3.6-2.7 0.7-5.8 1-9.3 1-3.1 0-6.1-0.5-9-1.5s-5.5-2.4-7.7-4.4-4-4.5-5.4-7.5c-1.4-2.8-2.1-6.3-2.1-10.5z"
       style="fill:#fcfdff;fill-opacity:1" /><path
       id="XMLID_57_"
       d="m1239.6 180.4v-46.1h29.7v5.6h-23v13.7h20.7v5.6h-20.7v15.6h24v5.6z"
       style="fill:#fcfdff;fill-opacity:1" /></g><path
     d="m72.277 71.756v77.402h45v-32.402h31.781v-45zm154.2 0v45h100.36v209.56h-209.56v-99.738h-45v144.74h299.56v-299.56z"
     color="#000000"
     color-rendering="auto"
     dominant-baseline="auto"
     enable-background="accumulate"
     fill="#0e6655"
     image-rendering="auto"
     shape-rendering="auto"
     solid-color="#000000"
     style="font-feature-settings:normal;font-variant-alternates:normal;font-variant-caps:normal;font-variant-ligatures:normal;font-variant-numeric:normal;font-variant-position:normal;isolation:auto;mix-blend-mode:normal;shape-padding:0;text-decoration-color:#000000;text-decoration-line:none;text-decoration-style:solid;text-indent:0;text-orientation:mixed;text-transform:none;white-space:normal;fill:#ffffff;fill-opacity:1"
     id="path1487" /><rect
     x="24.109"
     y="24.209"
     width="163.66"
     height="163.66"
     fill="none"
     stroke="#0e6655"
     stroke-width="45"
     id="rect1489"
     style="stroke:#ffffff;stroke-opacity:1" /><path
     d="m227.3 145.73v82.002h-82v45h127v-127z"
     color="#000000"
     color-rendering="auto"
     dominant-baseline="auto"
     enable-background="accumulate"
     fill="#0e6655"
     image-rendering="auto"
     shape-rendering="auto"
     solid-color="#000000"
     style="font-feature-settings:normal;font-variant-alternates:normal;font-variant-caps:normal;font-variant-ligatures:normal;font-variant-numeric:normal;font-variant-position:normal;isolation:auto;mix-blend-mode:normal;shape-padding:0;text-decoration-color:#000000;text-decoration-line:none;text-decoration-style:solid;text-indent:0;text-orientation:mixed;text-transform:none;white-space:normal;fill:#ffffff;fill-opacity:1"
     id="path1491" /><g
     transform="translate(17.414 -53.636)"
     fill="#0e6655"
     aria-label="MFN"
     id="g1499"
     style="fill:#ffffff;fill-opacity:1"><path
       d="m588.33 381.06 79.667-192h36.667v236h-24v-204h-0.66666l-85.333 204h-12.667l-85.333-204h-0.66667v204h-24v-236h36.667z"
       id="path1493"
       style="fill:#ffffff;fill-opacity:1" /><path
       d="m792.88 425.06h-24v-236h142.33v22h-118.33v80.333h110v22h-110z"
       id="path1495"
       style="fill:#ffffff;fill-opacity:1" /><path
       d="m1125.1 389.06h0.6667v-200h24v236h-30l-140.67-202h-0.66666v202h-24v-236h30z"
       id="path1497"
       style="fill:#ffffff;fill-opacity:1" /></g></svg>