<svg width="1200" height="247" viewBox="0 0 1200 247" fill="none" xmlns="http://www.w3.org/2000/svg">
<path d="M587.735 6.91242L608.146 36.2625C610.986 40.3473 617.042 40.4504 620.022 36.4644L642.122 6.91242H657.66V95.0547H645.229V45.1336V22.513H643.677L616.482 62.294H611.044L584.628 22.513H583.849V45.1336V95.0547H572.195V6.91242H587.735ZM718.263 96.6148C691.847 96.6148 670.869 77.8944 670.869 50.5937C670.869 23.2927 691.847 4.57227 718.263 4.57227C744.679 4.57227 765.657 23.2927 765.657 50.5937C766.436 77.8944 745.455 96.6148 718.263 96.6148ZM718.263 85.1307C736.91 85.1307 752.448 73.9942 752.448 51.3736C752.448 28.753 736.91 16.2728 718.263 16.2728C699.616 16.2728 684.078 28.753 684.078 51.3736C684.078 73.9942 699.616 85.1307 718.263 85.1307ZM812.273 6.91242C841.798 6.91242 860.445 23.2927 860.445 51.3736C860.445 80.2342 839.467 95.0547 809.942 95.0547H779.643V6.91242H812.273ZM792.849 79.3155C792.849 81.977 795.029 84.1344 797.716 84.1344H810.72C831.698 84.1344 847.236 74.7742 847.236 51.3736C847.236 27.1931 833.251 17.0527 812.273 17.0527H792.849V79.3155ZM886.861 6.91242V58.3938C886.861 77.1142 896.185 86.4744 910.947 86.4744C925.708 86.4744 935.032 77.1142 935.032 58.3938V6.91242H948.241V57.6138C948.241 84.9146 933.477 97.3948 910.947 97.3948C888.414 97.3948 873.652 84.9146 873.652 57.6138V6.91242H886.861ZM1020.5 84.1344V95.0547H966.11V6.91242H979.319V79.3155C979.319 81.9767 981.496 84.1344 984.185 84.1344H1020.5ZM1080.32 6.91242L1118.39 95.0547H1105.18L1092.75 68.5342H1052.35L1041.47 95.0547H1028.27L1066.34 6.91242H1080.32ZM1059.03 52.6497C1058.07 55.0249 1059.83 57.6138 1062.42 57.6138H1089.64L1074.1 19.3927H1072.55L1059.03 52.6497ZM1163.46 6.91242C1181.32 6.91242 1193.76 16.2728 1193.76 31.8732C1193.76 42.0132 1186.76 51.3736 1174.33 55.2738L1199.97 95.8349H1185.21L1161.9 57.6138H1140.92V95.8349H1127.72V6.91242H1163.46ZM1140.15 41.8744C1140.15 44.5358 1142.33 46.6933 1145.01 46.6933H1161.12C1172.78 46.6933 1180.55 41.2335 1180.55 31.8732C1180.55 22.513 1172.78 17.0527 1161.12 17.0527H1140.15V41.8744ZM625.029 154.779V164.92H590.27C587.584 164.92 585.404 167.077 585.404 169.739V192.22H625.029V202.361H585.404V242.922H572.197V154.779H625.029ZM652.998 154.779V242.922H639.791V154.779H652.998ZM684.078 154.779L731.29 215.678C734.122 219.329 740.017 217.347 740.017 212.743V203.921V154.779H752.448V242.922H738.462L691.253 181.831C688.426 178.172 682.523 180.152 682.523 184.76V197.681V242.922H670.093V154.779H684.078ZM814.604 154.779L852.674 242.922H839.467L827.813 216.401H787.411L776.533 242.922H763.326L801.397 154.779H814.604ZM792.538 200.517C791.572 202.892 793.338 205.481 795.922 205.481H823.151L807.611 167.26H806.059L792.538 200.517ZM875.207 154.779L922.416 215.851C925.243 219.509 931.146 217.529 931.146 212.922V203.921V154.779H943.577V242.922H929.591L882.385 181.818C879.557 178.159 873.652 180.139 873.652 184.747V197.681V242.922H861.222V154.779H875.207ZM1031.37 172.72C1022.83 166.48 1015.06 163.36 1004.96 163.36C983.981 163.36 969.995 178.18 969.995 198.461C969.995 221.081 985.533 232.782 1004.18 232.782C1015.06 232.782 1022.05 230.441 1032.15 224.202V235.729C1022.52 241.838 1016.61 243.703 1003.4 243.703C980.095 243.703 957.562 228.882 957.562 197.681C957.562 170.38 979.319 151.659 1004.96 151.659C1018.17 151.659 1023.95 154.365 1031.37 160.256V172.72ZM1048.47 154.779H1105.18V165.7H1061.67V192.22H1101.3V203.141H1061.67V227.183C1061.67 229.844 1063.85 232.002 1066.54 232.002H1105.18V242.922H1048.47V154.779Z" fill="white"/>
<path d="M80.6818 243.913C79.249 245.32 76.9339 245.308 75.5152 243.887L1.26293 169.465C-0.146652 168.052 -0.140942 165.778 1.27572 164.372L76.296 89.9244C77.722 88.5096 80.0368 88.5096 81.4629 89.9244L156.458 164.346C157.884 165.762 157.879 168.056 156.445 169.465L80.6818 243.913ZM35.1383 163.849C33.4324 165.542 33.4324 168.283 35.1383 169.976L74.9857 209.519C76.6967 211.217 79.4748 211.217 81.1857 209.519L121.033 169.976C122.739 168.283 122.739 165.542 121.033 163.849L81.1857 124.306C79.4748 122.608 76.6967 122.608 74.9857 124.306L35.1383 163.849Z" fill="white"/>
<path d="M169.534 156.547C168.102 157.955 165.786 157.943 164.368 156.521L90.1154 82.0995C88.7059 80.6869 88.7115 78.4124 90.1283 77.0064L165.149 2.5593C166.575 1.1443 168.889 1.1443 170.315 2.5593L245.309 76.9811C246.737 78.3969 246.73 80.691 245.297 82.0998L169.534 156.547ZM123.991 76.4833C122.285 78.1762 122.285 80.9172 123.991 82.6103L163.838 122.153C165.549 123.851 168.327 123.851 170.038 122.153L209.886 82.6103C211.592 80.9172 211.592 78.1762 209.886 76.4833L170.038 36.9405C168.327 35.2423 165.549 35.2423 163.838 36.9405L123.991 76.4833Z" fill="white"/>
<path d="M256.84 243.929C255.406 245.339 253.093 245.327 251.674 243.905L177.422 169.483C176.012 168.07 176.018 165.795 177.434 164.39L252.455 89.9422C253.881 88.5271 256.195 88.5271 257.621 89.9422L332.616 164.364C334.044 165.78 334.037 168.074 332.604 169.483L256.84 243.929ZM211.297 163.866C209.591 165.559 209.591 168.3 211.297 169.993L251.144 209.536C252.857 211.234 255.633 211.234 257.346 209.536L297.192 169.993C298.898 168.3 298.898 165.559 297.192 163.866L257.346 124.323C255.633 122.625 252.857 122.625 251.144 124.323L211.297 163.866Z" fill="white"/>
<path d="M345.693 156.564C344.26 157.972 341.944 157.961 340.525 156.539L266.275 82.1172C264.864 80.7045 264.871 78.43 266.287 77.0241L341.306 2.57686C342.732 1.16188 345.049 1.16188 346.474 2.57686L421.469 76.9988C422.895 78.4146 422.89 80.7086 421.455 82.1172L345.693 156.564ZM300.148 76.501C298.443 78.1939 298.443 80.9348 300.148 82.628L339.997 122.171C341.708 123.869 344.487 123.869 346.197 122.171L386.044 82.628C387.749 80.9348 387.749 78.1939 386.044 76.501L346.197 36.9579C344.487 35.2599 341.708 35.2599 339.997 36.9579L300.148 76.501Z" fill="white"/>
<path d="M432.971 243.929C431.538 245.339 429.224 245.327 427.803 243.905L353.552 169.483C352.141 168.07 352.148 165.795 353.564 164.39L428.584 89.9422C430.01 88.5271 432.326 88.5271 433.752 89.9422L508.747 164.364C510.173 165.78 510.168 168.074 508.735 169.483L432.971 243.929ZM387.428 163.866C385.72 165.559 385.72 168.3 387.428 169.993L427.275 209.536C428.985 211.234 431.764 211.234 433.474 209.536L473.321 169.993C475.027 168.3 475.027 165.559 473.321 163.866L433.474 124.323C431.764 122.625 428.985 122.625 427.275 124.323L387.428 163.866Z" fill="white"/>
</svg>
